<svg width="172" height="33" viewBox="0 0 172 33" fill="none" xmlns="http://www.w3.org/2000/svg">
<path d="M14.7691 2.21993C15.1107 1.39864 16.2742 1.39864 16.6158 2.21993L19.8222 9.92909C19.9662 10.2753 20.2918 10.5119 20.6656 10.5419L28.9883 11.2091C29.8749 11.2802 30.2344 12.3867 29.5589 12.9653L23.2179 18.3971C22.9331 18.641 22.8087 19.0238 22.8957 19.3886L24.833 27.5101C25.0394 28.3753 24.0982 29.0592 23.3391 28.5955L16.2137 24.2434C15.8937 24.0479 15.4912 24.0479 15.1712 24.2434L8.0458 28.5955C7.2867 29.0592 6.34545 28.3753 6.55184 27.5101L8.48912 19.3886C8.57613 19.0238 8.45175 18.641 8.16696 18.3971L1.82596 12.9653C1.15042 12.3867 1.50995 11.2802 2.3966 11.2091L10.7193 10.5419C11.0931 10.5119 11.4187 10.2753 11.5627 9.92909L14.7691 2.21993Z" fill="#471C2A"/>
<path d="M48.9615 2.21993C49.3031 1.39864 50.4666 1.39864 50.8082 2.21993L54.0146 9.92909C54.1586 10.2753 54.4842 10.5119 54.858 10.5419L63.1807 11.2091C64.0673 11.2802 64.4269 12.3867 63.7513 12.9653L57.4103 18.3971C57.1255 18.641 57.0012 19.0238 57.0882 19.3886L59.0255 27.5101C59.2318 28.3753 58.2906 29.0592 57.5315 28.5955L50.4061 24.2434C50.0861 24.0479 49.6836 24.0479 49.3636 24.2434L42.2382 28.5955C41.4791 29.0592 40.5379 28.3753 40.7443 27.5101L42.6815 19.3886C42.7685 19.0238 42.6442 18.641 42.3594 18.3971L36.0184 12.9653C35.3428 12.3867 35.7024 11.2802 36.589 11.2091L44.9117 10.5419C45.2855 10.5119 45.6111 10.2753 45.7551 9.92909L48.9615 2.21993Z" fill="#471C2A"/>
<path d="M83.9615 2.21993C84.3031 1.39864 85.4666 1.39864 85.8082 2.21993L89.0146 9.92909C89.1586 10.2753 89.4842 10.5119 89.858 10.5419L98.1807 11.2091C99.0673 11.2802 99.4269 12.3867 98.7513 12.9653L92.4103 18.3971C92.1255 18.641 92.0012 19.0238 92.0882 19.3886L94.0255 27.5101C94.2318 28.3753 93.2906 29.0592 92.5315 28.5955L85.4061 24.2434C85.0861 24.0479 84.6836 24.0479 84.3636 24.2434L77.2382 28.5955C76.4791 29.0592 75.5379 28.3753 75.7443 27.5101L77.6815 19.3886C77.7685 19.0238 77.6442 18.641 77.3594 18.3971L71.0184 12.9653C70.3428 12.3867 70.7024 11.2802 71.589 11.2091L79.9117 10.5419C80.2855 10.5119 80.6111 10.2753 80.7551 9.92909L83.9615 2.21993Z" fill="#471C2A"/>
<path d="M118.962 2.21993C119.303 1.39864 120.467 1.39864 120.808 2.21993L124.015 9.92909C124.159 10.2753 124.484 10.5119 124.858 10.5419L133.181 11.2091C134.067 11.2802 134.427 12.3867 133.751 12.9653L127.41 18.3971C127.126 18.641 127.001 19.0238 127.088 19.3886L129.025 27.5101C129.232 28.3753 128.291 29.0592 127.531 28.5955L120.406 24.2434C120.086 24.0479 119.684 24.0479 119.364 24.2434L112.238 28.5955C111.479 29.0592 110.538 28.3753 110.744 27.5101L112.682 19.3886C112.769 19.0238 112.644 18.641 112.359 18.3971L106.018 12.9653C105.343 12.3867 105.702 11.2802 106.589 11.2091L114.912 10.5419C115.285 10.5119 115.611 10.2753 115.755 9.92909L118.962 2.21993Z" fill="#471C2A"/>
<path d="M153.962 2.21993C154.303 1.39864 155.467 1.39864 155.808 2.21993L159.015 9.92909C159.159 10.2753 159.484 10.5119 159.858 10.5419L168.181 11.2091C169.067 11.2802 169.427 12.3867 168.751 12.9653L162.41 18.3971C162.126 18.641 162.001 19.0238 162.088 19.3886L164.025 27.5101C164.232 28.3753 163.291 29.0592 162.531 28.5955L155.406 24.2434C155.086 24.0479 154.684 24.0479 154.364 24.2434L147.238 28.5955C146.479 29.0592 145.538 28.3753 145.744 27.5101L147.682 19.3886C147.769 19.0238 147.644 18.641 147.359 18.3971L141.018 12.9653C140.343 12.3867 140.702 11.2802 141.589 11.2091L149.912 10.5419C150.285 10.5119 150.611 10.2753 150.755 9.92909L153.962 2.21993Z" fill="#843951"/>
</svg>
