<svg width="43" height="40" viewBox="0 0 43 40" fill="none" xmlns="http://www.w3.org/2000/svg">
<path d="M21.243 0C9.55896 0 0.0762939 8.96 0.0762939 20C0.0762939 31.04 9.55896 40 21.243 40C32.927 40 42.4096 31.04 42.4096 20C42.4096 8.96 32.927 0 21.243 0ZM21.243 8C25.3281 8 28.6513 11.14 28.6513 15C28.6513 18.86 25.3281 22 21.243 22C17.1578 22 13.8346 18.86 13.8346 15C13.8346 11.14 17.1578 8 21.243 8ZM21.243 36C16.9461 36 11.8661 34.36 8.24663 30.24C11.8238 27.6 16.3323 26 21.243 26C26.1536 26 30.6621 27.6 34.2393 30.24C30.6198 34.36 25.5398 36 21.243 36Z" fill="#D8C2C9"/>
</svg>
