<svg width="256" height="40" viewBox="0 0 256 40" fill="none" xmlns="http://www.w3.org/2000/svg">
<rect width="255.076" height="40" rx="20" fill="#D8C2C9"/>
<path d="M229.127 28.975L235.702 22.4C236.202 22.8333 236.785 23.1708 237.452 23.4125C238.119 23.6541 238.827 23.775 239.577 23.775C241.377 23.775 242.902 23.15 244.152 21.9C245.402 20.65 246.027 19.1416 246.027 17.375C246.027 15.6083 245.402 14.1 244.152 12.85C242.902 11.6 241.385 10.975 239.602 10.975C237.835 10.975 236.331 11.6 235.089 12.85C233.848 14.1 233.227 15.6083 233.227 17.375C233.227 18.0916 233.344 18.7833 233.577 19.45C233.81 20.1166 234.16 20.7416 234.627 21.325L228.027 27.875L229.127 28.975ZM239.602 22.275C238.252 22.275 237.102 21.7958 236.152 20.8375C235.202 19.8791 234.727 18.725 234.727 17.375C234.727 16.025 235.202 14.8708 236.152 13.9125C237.102 12.9541 238.252 12.475 239.602 12.475C240.969 12.475 242.131 12.9541 243.089 13.9125C244.048 14.8708 244.527 16.025 244.527 17.375C244.527 18.725 244.048 19.8791 243.089 20.8375C242.131 21.7958 240.969 22.275 239.602 22.275V22.275Z" fill="#6F2E42"/>
</svg>
