<svg width="41" height="40" viewBox="0 0 41 40" fill="none" xmlns="http://www.w3.org/2000/svg">
<path d="M12.2872 32C10.1096 32 8.34777 33.8 8.34777 36C8.34777 38.2 10.1096 40 12.2872 40C14.4647 40 16.2463 38.2 16.2463 36C16.2463 33.8 14.4647 32 12.2872 32ZM0.409607 0V4H4.36879L11.4953 19.18L8.82287 24.08C8.50614 24.64 8.32797 25.3 8.32797 26C8.32797 28.2 10.1096 30 12.2872 30H36.0423V26H13.1186C12.8414 26 12.6237 25.78 12.6237 25.5L12.6831 25.26L14.4647 22H29.2127C30.6974 22 32.0039 21.18 32.677 19.94L39.7639 6.96C39.9223 6.68 40.0014 6.34 40.0014 6C40.0014 4.9 39.1106 4 38.0219 4H8.74369L6.88287 0H0.409607ZM32.0831 32C29.9055 32 28.1437 33.8 28.1437 36C28.1437 38.2 29.9055 40 32.0831 40C34.2606 40 36.0423 38.2 36.0423 36C36.0423 33.8 34.2606 32 32.0831 32Z" fill="#D8C2C9"/>
</svg>
